<svg width="144" height="30" viewBox="0 0 144 30" fill="none" xmlns="http://www.w3.org/2000/svg">
<path d="M15.5067 7.30838C11.2492 7.30838 7.81507 10.7425 7.81507 15C7.81507 19.2575 11.2492 22.6916 15.5067 22.6916C19.7642 22.6916 23.1983 19.2575 23.1983 15C23.1983 10.7425 19.7642 7.30838 15.5067 7.30838ZM15.5067 20.0006C12.7554 20.0006 10.5061 17.758 10.5061 15C10.5061 12.242 12.7487 9.99944 15.5067 9.99944C18.2647 9.99944 20.5073 12.242 20.5073 15C20.5073 17.758 18.258 20.0006 15.5067 20.0006ZM25.307 6.99375C25.307 7.99119 24.5037 8.7878 23.5129 8.7878C22.5155 8.7878 21.7189 7.98449 21.7189 6.99375C21.7189 6.00301 22.5222 5.19971 23.5129 5.19971C24.5037 5.19971 25.307 6.00301 25.307 6.99375ZM30.4013 8.81457C30.2875 6.41136 29.7385 4.28261 27.978 2.52873C26.2241 0.774852 24.0953 0.225929 21.6921 0.105433C19.2153 -0.0351445 11.7914 -0.0351445 9.31457 0.105433C6.91805 0.219235 4.7893 0.768158 3.02873 2.52203C1.26816 4.27591 0.725929 6.40466 0.605433 8.80788C0.464856 11.2847 0.464856 18.7086 0.605433 21.1854C0.719235 23.5886 1.26816 25.7174 3.02873 27.4713C4.7893 29.2251 6.91136 29.7741 9.31457 29.8946C11.7914 30.0351 19.2153 30.0351 21.6921 29.8946C24.0953 29.7808 26.2241 29.2318 27.978 27.4713C29.7318 25.7174 30.2808 23.5886 30.4013 21.1854C30.5418 18.7086 30.5418 11.2914 30.4013 8.81457ZM27.2014 23.843C26.6793 25.1551 25.6685 26.1659 24.3497 26.6947C22.3749 27.478 17.689 27.2972 15.5067 27.2972C13.3244 27.2972 8.63176 27.4713 6.66367 26.6947C5.35161 26.1726 4.34079 25.1618 3.81195 23.843C3.02873 21.8682 3.20947 17.1823 3.20947 15C3.20947 12.8177 3.03542 8.12507 3.81195 6.15698C4.3341 4.84492 5.34492 3.8341 6.66367 3.30525C8.63846 2.52203 13.3244 2.70278 15.5067 2.70278C17.689 2.70278 22.3816 2.52873 24.3497 3.30525C25.6618 3.8274 26.6726 4.83822 27.2014 6.15698C27.9847 8.13176 27.8039 12.8177 27.8039 15C27.8039 17.1823 27.9847 21.8749 27.2014 23.843Z" fill="white"/>
<path d="M139.715 7.47654C139.738 7.80464 139.738 8.13283 139.738 8.46093C139.738 18.4687 132.121 30 118.199 30C113.91 30 109.926 28.7578 106.574 26.6016C107.184 26.6719 107.769 26.6953 108.402 26.6953C111.941 26.6953 115.199 25.5 117.801 23.461C114.473 23.3906 111.684 21.211 110.723 18.2109C111.191 18.2812 111.66 18.3281 112.152 18.3281C112.832 18.3281 113.512 18.2343 114.145 18.0703C110.676 17.3671 108.074 14.3203 108.074 10.6406V10.5469C109.082 11.1094 110.254 11.461 111.496 11.5078C109.457 10.1484 108.121 7.82809 108.121 5.20307C108.121 3.79685 108.496 2.50779 109.152 1.38278C112.879 5.97652 118.48 8.97647 124.762 9.30466C124.644 8.74215 124.574 8.15627 124.574 7.57032C124.574 3.3984 127.949 0 132.144 0C134.324 0 136.293 0.91406 137.676 2.39062C139.387 2.06252 141.027 1.42967 142.48 0.562504C141.918 2.32036 140.723 3.79692 139.152 4.73435C140.676 4.57037 142.152 4.1484 143.512 3.56253C142.481 5.06246 141.191 6.39835 139.715 7.47654Z" fill="white"/>
<path d="M75.5215 16.875L76.3547 11.4457H71.1451V7.92246C71.1451 6.43711 71.8729 4.98926 74.2061 4.98926H76.5744V0.366797C76.5744 0.366797 74.4252 0 72.3703 0C68.0801 0 65.2758 2.60039 65.2758 7.30781V11.4457H60.5068V16.875H65.2758V30H71.1451V16.875H75.5215Z" fill="white"/>
</svg>
